<?xml version="1.0" encoding="utf-8"?>
<!-- Generator: Adobe Illustrator 26.2.1, SVG Export Plug-In . SVG Version: 6.00 Build 0)  -->
<svg version="1.1" id="Layer_1" xmlns="http://www.w3.org/2000/svg" xmlns:xlink="http://www.w3.org/1999/xlink" x="0px" y="0px"
	 viewBox="0 0 341 82" style="enable-background:new 0 0 341 82;" xml:space="preserve">
<style type="text/css">
	.st0{clip-path:url(#SVGID_00000017490432607047482840000015449319741479876011_);}
	.st1{fill:#000426;}
	.st2{fill:#00D8D5;}
	.st3{fill:#FF4C8B;}
</style>
<g>
	<defs>
		<rect id="SVGID_1_" width="340.6" height="81.3"/>
	</defs>
	<clipPath id="SVGID_00000142174547298272657400000005703241233174245547_">
		<use xlink:href="#SVGID_1_"  style="overflow:visible;"/>
	</clipPath>
	<g style="clip-path:url(#SVGID_00000142174547298272657400000005703241233174245547_);">
		<path class="st1" d="M92.1,41.8c0-13.3,7.1-19.9,21-19.9c5.7,0,9,1,11.9,2.3l-2.4,6.6c-3.6-1-5.1-1.4-9.3-1.4
			c-6.9-0.1-11.7,3.8-11.7,11.8c0,8,5.1,12.3,12.8,12.3c3.7,0,5.9-0.3,8.9-1.1l1.9,6.9c-3.7,1.4-6.9,1.8-11.8,1.8
			C99.2,61.2,92.1,54.4,92.1,41.8L92.1,41.8z M150.7,45.9c0-4.8-1.2-8.4-6.2-8.4c-4.9,0-6.2,3.6-6.2,8.4c0,5.1,1.5,8.2,6.3,8.2
			C149.5,54.1,150.7,51,150.7,45.9L150.7,45.9z M129.3,46.2c0-9.8,6.1-15.8,15.4-15.8c10.5,0,15.2,5.9,15.2,15.5
			c0,10-6.6,15.4-15.7,15.4C134.5,61.3,129.3,55.4,129.3,46.2L129.3,46.2z M162.8,31.2h9.7l5,16l1.5,5.9l1.7-5.9l5.5-16h9.5
			l-11.4,29.5h-10.7L162.8,31.2z M216.3,53.2v-4.6l-4.4,0.1c-2.6,0.1-4.6,0.9-4.6,3.1c0,1.7,1.7,2.5,3.3,2.5
			C212.3,54.2,214.3,53.7,216.3,53.2L216.3,53.2z M198.5,52.3c0-7.5,6.8-9,12.6-9h5.1v-1.8c0-2.6-1.7-3.3-5.3-3.3
			c-2.9,0-6.1,0.6-8.8,1.3l-1.8-6.5c3.3-1.3,7.2-2.4,11.9-2.4c9.1,0,12.8,2.6,12.8,9.2v13.1c0,1,1,1.2,2.6,1.2l-0.3,6.8
			c-0.7,0.1-1.4,0.1-2.1,0.1c-3.6,0-7.3-0.6-8.2-3.1c-2.2,1.7-5.2,3.3-8.5,3.3C202.2,61.2,198.5,58.1,198.5,52.3L198.5,52.3z
			 M234.4,20h9v40.7h-9V20z M268.4,42.9c0.1-3.6-1.5-6-4.4-6c-3.1,0-5.1,2.2-5.2,6H268.4z M249.6,46.4c0-12,6.3-15.9,15.2-15.9
			c9.3,0,12.9,6,12.9,15v3.2h-19.1c-0.1,4.6,3.6,5.5,8.3,5.5c2,0,5.3-0.6,8.4-1.2l1.4,6.9c-3.3,1-7.5,1.5-11.1,1.5
			C255.9,61.3,249.6,58.1,249.6,46.4L249.6,46.4z M283.8,31.2h9v3c1.8-1.3,5.7-3.7,9.6-3.7c9.2,0,9.9,5.1,9.9,11.8v18.5h-9V43
			c0-4-0.9-4.8-3.9-4.8c-2.7,0-5.1,0.9-6.6,1.6v20.9h-9V31.2L283.8,31.2z M321.2,51.5V37.8h-4.3v-6.6h4.3v-6h9v6h9.1v6.6h-9.1v13.6
			c0,2.2,0.8,2.3,3.2,2.3c2,0,6.4-0.6,6.4-0.6l0.9,7.1c-2.1,0.6-5,1-7.1,1C327.8,61.3,321.2,61.5,321.2,51.5L321.2,51.5z M40.6,19V0
			C18.2,0,0,18.2,0,40.6c0,22.5,18.2,40.6,40.6,40.6v-19c-12,0-21.7-9.7-21.7-21.7C19,28.7,28.7,19,40.6,19"/>
		<path class="st2" d="M62.4,19c-1.2,0-2.5-0.2-3.6-0.7c-1.2-0.5-2.2-1.2-3.1-2.1c-0.9-0.9-1.6-1.9-2.1-3.1
			c-0.5-1.2-0.7-2.4-0.7-3.6c0-1.2,0.2-2.5,0.7-3.6c0.5-1.2,1.2-2.2,2.1-3.1s1.9-1.6,3.1-2.1C59.9,0.2,61.2,0,62.4,0
			c2.5,0,4.9,1,6.7,2.8c1.8,1.8,2.8,4.2,2.8,6.7c0,2.5-1,4.9-2.8,6.7C67.3,18,64.9,19,62.4,19"/>
		<path class="st3" d="M62.3,81.3c-2.5,0-4.9-1-6.7-2.8c-1.8-1.8-2.8-4.2-2.8-6.7c0-2.5,1-4.9,2.8-6.7c1.8-1.8,4.2-2.8,6.7-2.8
			c2.5,0,4.9,1,6.7,2.8c1.8,1.8,2.8,4.2,2.8,6.7c0,2.5-1,4.9-2.8,6.7C67.2,80.3,64.8,81.3,62.3,81.3"/>
		<path class="st1" d="M62.3,40.6c0,12-9.7,21.7-21.7,21.7V19C52.6,19,62.3,28.7,62.3,40.6"/>
	</g>
</g>
</svg>
