<svg width="329" height="60" viewBox="0 0 329 60" fill="none" xmlns="http://www.w3.org/2000/svg">
<path d="M43 38.8651C43 40.2254 42.8232 41.4532 42.4696 42.5485C42.1338 43.6262 41.6829 44.5802 41.1172 45.4105C40.5515 46.2408 39.8886 46.9474 39.1284 47.5304C38.3682 48.1134 37.5815 48.5904 36.7683 48.9614C35.9551 49.3324 35.1242 49.6062 34.2756 49.7829C33.4448 49.9595 32.6581 50.0479 31.9156 50.0479H5.31821V43.158H31.9156C33.2414 43.158 34.2668 42.7694 34.9916 41.9921C35.7341 41.2148 36.1054 40.1724 36.1054 38.8651C36.1054 38.2292 36.0081 37.6462 35.8137 37.1162C35.6192 36.5862 35.3364 36.1269 34.9651 35.7382C34.6115 35.3496 34.1696 35.0492 33.6392 34.8373C33.1265 34.6253 32.552 34.5193 31.9156 34.5193H16.0579C14.9442 34.5193 13.742 34.3249 12.4515 33.9363C11.161 33.53 9.95883 32.8851 8.84508 32.0018C7.74901 31.1185 6.82973 29.9614 6.08723 28.5304C5.36241 27.0995 5 25.3505 5 23.2836C5 21.2166 5.36241 19.4765 6.08723 18.0632C6.82973 16.6322 7.74901 15.4751 8.84508 14.5918C9.95883 13.6908 11.161 13.046 12.4515 12.6573C13.742 12.251 14.9442 12.0479 16.0579 12.0479H39.5262V18.9377H16.0579C14.7497 18.9377 13.7244 19.3352 12.9819 20.1301C12.257 20.9251 11.8946 21.9763 11.8946 23.2836C11.8946 24.6085 12.257 25.6597 12.9819 26.437C13.7244 27.1966 14.7497 27.5764 16.0579 27.5764H31.9686C32.7111 27.5941 33.4978 27.7001 34.3287 27.8944C35.1596 28.0711 35.9816 28.3538 36.7948 28.7424C37.6257 29.1311 38.4124 29.6257 39.1549 30.2264C39.8974 30.8094 40.5515 31.516 41.1172 32.3463C41.7006 33.1766 42.1603 34.1306 42.4962 35.2082C42.8321 36.2859 43 37.5048 43 38.8651Z" fill="black"/>
<path d="M78 50.0479H53.5242C52.8979 50.0479 52.2195 49.9772 51.4889 49.8359C50.7756 49.6769 50.0624 49.4384 49.3492 49.1204C48.6534 48.8024 47.9836 48.3961 47.34 47.9014C46.6963 47.3891 46.1223 46.7796 45.6178 46.073C45.1307 45.3486 44.7393 44.5183 44.4436 43.582C44.1479 42.628 44 41.5592 44 40.3756V21.7201C44 21.0841 44.0696 20.404 44.2087 19.6797C44.3653 18.9377 44.6002 18.2134 44.9133 17.5067C45.2264 16.7824 45.6352 16.0934 46.1397 15.4398C46.6442 14.7861 47.2443 14.212 47.9401 13.7173C48.6534 13.205 49.471 12.7987 50.3929 12.4983C51.3149 12.198 52.3587 12.0479 53.5242 12.0479H78V18.9377H53.5242C52.637 18.9377 51.9586 19.1762 51.4889 19.6532C51.0192 20.1301 50.7843 20.8368 50.7843 21.7731V40.3756C50.7843 41.2589 51.0192 41.9479 51.4889 42.4426C51.976 42.9195 52.6544 43.158 53.5242 43.158H78V50.0479Z" fill="black"/>
<path d="M168.341 23.8205C168.341 25.3928 168.145 26.7973 167.753 28.0339C167.36 29.2705 166.825 30.3658 166.147 31.3198C165.487 32.2561 164.72 33.0599 163.846 33.7313C162.972 34.4026 162.054 34.9591 161.09 35.4007C160.145 35.8247 159.182 36.1339 158.201 36.3282C157.237 36.5225 156.328 36.6197 155.472 36.6197L170 49.0479H159.244L144.742 36.6197H139.739V29.7299H155.472C156.346 29.6592 157.139 29.4825 157.853 29.1999C158.584 28.8995 159.208 28.5021 159.726 28.0074C160.261 27.5128 160.671 26.9209 160.957 26.232C161.242 25.5253 161.385 24.7215 161.385 23.8205V19.4746C161.385 19.086 161.331 18.7945 161.224 18.6002C161.135 18.3882 161.01 18.238 160.849 18.1497C160.707 18.0437 160.546 17.9818 160.368 17.9642C160.207 17.9465 160.056 17.9377 159.913 17.9377H136.957V49.0479H130V14.5193C130 14.0423 130.089 13.5918 130.268 13.1678C130.446 12.7438 130.687 12.3728 130.99 12.0548C131.311 11.7368 131.686 11.4895 132.114 11.3128C132.542 11.1362 133.006 11.0479 133.505 11.0479H159.913C161.465 11.0479 162.776 11.3305 163.846 11.8958C164.916 12.4435 165.781 13.1413 166.441 13.9893C167.119 14.8196 167.601 15.7206 167.886 16.6922C168.19 17.6638 168.341 18.5737 168.341 19.4216V23.8205Z" fill="black"/>
<path d="M200.855 33.5193H178.785V26.5764H200.855V33.5193ZM204 49.0479H178.785C177.817 49.0479 176.76 48.88 175.613 48.5444C174.466 48.2087 173.4 47.6611 172.414 46.9014C171.446 46.1241 170.631 45.126 169.968 43.907C169.323 42.6704 169 41.1599 169 39.3756V14.5193C169 14.0423 169.09 13.5918 169.269 13.1678C169.448 12.7438 169.69 12.3728 169.995 12.0548C170.317 11.7368 170.694 11.4895 171.124 11.3128C171.554 11.1362 172.02 11.0479 172.522 11.0479H204V17.9377H175.989V39.3756C175.989 40.2766 176.231 40.9656 176.715 41.4426C177.199 41.9195 177.907 42.158 178.839 42.158H204V49.0479Z" fill="black"/>
<path d="M243 40.7006C243 41.5485 242.854 42.4584 242.561 43.43C242.286 44.4016 241.821 45.3026 241.167 46.1329C240.53 46.9632 239.695 47.6611 238.662 48.2264C237.629 48.774 236.364 49.0479 234.867 49.0479H209.382C208.9 49.0479 208.453 48.9595 208.04 48.7829C207.627 48.6062 207.265 48.3677 206.955 48.0674C206.663 47.7494 206.43 47.3784 206.258 46.9544C206.086 46.5304 206 46.0711 206 45.5764V14.5193C206 14.0423 206.086 13.5918 206.258 13.1678C206.43 12.7438 206.663 12.3728 206.955 12.0548C207.265 11.7368 207.627 11.4895 208.04 11.3128C208.453 11.1362 208.9 11.0479 209.382 11.0479H231.846C232.672 11.0479 233.559 11.198 234.505 11.4983C235.452 11.7987 236.33 12.2845 237.139 12.9558C237.965 13.6095 238.645 14.4663 239.179 15.5262C239.729 16.5862 240.005 17.8847 240.005 19.4216V20.7201C240.005 21.9391 239.807 23.2552 239.411 24.6685C239.015 26.0641 238.378 27.3891 237.5 28.6434C238.258 29.1204 238.963 29.6945 239.618 30.3658C240.289 31.0372 240.874 31.8145 241.373 32.6978C241.873 33.5811 242.268 34.5792 242.561 35.6922C242.854 36.8052 243 38.033 243 39.3756V40.7006ZM236.287 39.3756C236.287 38.4746 236.149 37.6708 235.874 36.9642C235.598 36.2399 235.211 35.6215 234.712 35.1092C234.213 34.5969 233.61 34.2082 232.904 33.9432C232.199 33.6606 231.407 33.5193 230.529 33.5193H215.398V26.5764H227.508C228.386 26.5764 229.178 26.4439 229.883 26.179C230.589 25.8963 231.192 25.4988 231.691 24.9865C232.19 24.4742 232.569 23.8647 232.827 23.158C233.102 22.4337 233.24 21.6211 233.24 20.7201V19.4216C233.24 18.4323 232.775 17.9377 231.846 17.9377H212.713V42.158H234.867C234.987 42.158 235.134 42.1492 235.306 42.1315C235.478 42.1139 235.633 42.0609 235.77 41.9725C235.908 41.8842 236.029 41.734 236.132 41.5221C236.235 41.3101 236.287 41.0186 236.287 40.6476V39.3756Z" fill="black"/>
<path d="M323.116 13.0479L308.201 30.0321L325 49.0479H313.566L302.516 36.4928L291.466 49.0479H280L296.767 29.9655L281.916 13.0479H293.286L302.452 23.4715L311.682 13.0479H323.116Z" fill="black"/>
<path d="M284.473 33.4717C284.473 35.8171 284.07 37.9744 283.264 39.9438C282.458 41.9132 281.34 43.6141 279.907 45.0464C278.475 46.4787 276.774 47.5977 274.805 48.4033C272.853 49.1911 270.723 49.585 268.413 49.585H258.96C256.65 49.585 254.511 49.1911 252.542 48.4033C250.572 47.5977 248.871 46.4787 247.439 45.0464C246.007 43.6141 244.879 41.9132 244.055 39.9438C243.25 37.9744 242.847 35.8171 242.847 33.4717V26.1133C242.847 23.7858 243.25 21.6374 244.055 19.668C244.879 17.6807 246.007 15.9798 247.439 14.5654C248.871 13.1331 250.572 12.0142 252.542 11.2085C254.511 10.4028 256.65 10 258.96 10H268.413C270.723 10 272.853 10.4028 274.805 11.2085C276.774 12.0142 278.475 13.1331 279.907 14.5654C281.34 15.9798 282.458 17.6807 283.264 19.668C284.07 21.6374 284.473 23.7858 284.473 26.1133V33.4717ZM277.49 26.1133C277.49 24.7347 277.266 23.4904 276.819 22.3804C276.389 21.2524 275.771 20.2946 274.966 19.5068C274.178 18.7012 273.22 18.0835 272.092 17.6538C270.982 17.2062 269.756 16.9824 268.413 16.9824H258.96C257.599 16.9824 256.355 17.2062 255.227 17.6538C254.117 18.0835 253.159 18.7012 252.354 19.5068C251.548 20.2946 250.921 21.2524 250.474 22.3804C250.044 23.4904 249.829 24.7347 249.829 26.1133V33.4717C249.829 34.8503 250.044 36.1035 250.474 37.2314C250.921 38.3415 251.548 39.2993 252.354 40.105C253.159 40.8927 254.117 41.5104 255.227 41.958C256.355 42.3877 257.599 42.6025 258.96 42.6025H268.359C269.72 42.6025 270.955 42.3877 272.065 41.958C273.193 41.5104 274.16 40.8927 274.966 40.105C275.771 39.2993 276.389 38.3415 276.819 37.2314C277.266 36.1035 277.49 34.8503 277.49 33.4717V26.1133Z" fill="black"/>
<path d="M43 38.8651C43 40.2254 42.8232 41.4532 42.4696 42.5485C42.1338 43.6262 41.6829 44.5802 41.1172 45.4105C40.5515 46.2408 39.8886 46.9474 39.1284 47.5304C38.3682 48.1134 37.5815 48.5904 36.7683 48.9614C35.9551 49.3324 35.1242 49.6062 34.2756 49.7829C33.4448 49.9595 32.6581 50.0479 31.9156 50.0479H5.31821V43.158H31.9156C33.2414 43.158 34.2668 42.7694 34.9916 41.9921C35.7341 41.2148 36.1054 40.1724 36.1054 38.8651C36.1054 38.2292 36.0081 37.6462 35.8137 37.1162C35.6192 36.5862 35.3364 36.1269 34.9651 35.7382C34.6115 35.3496 34.1696 35.0492 33.6392 34.8373C33.1265 34.6253 32.552 34.5193 31.9156 34.5193H16.0579C14.9442 34.5193 13.742 34.3249 12.4515 33.9363C11.161 33.53 9.95883 32.8851 8.84508 32.0018C7.74901 31.1185 6.82973 29.9614 6.08723 28.5304C5.36241 27.0995 5 25.3505 5 23.2836C5 21.2166 5.36241 19.4765 6.08723 18.0632C6.82973 16.6322 7.74901 15.4751 8.84508 14.5918C9.95883 13.6908 11.161 13.046 12.4515 12.6573C13.742 12.251 14.9442 12.0479 16.0579 12.0479H39.5262V18.9377H16.0579C14.7497 18.9377 13.7244 19.3352 12.9819 20.1301C12.257 20.9251 11.8946 21.9763 11.8946 23.2836C11.8946 24.6085 12.257 25.6597 12.9819 26.437C13.7244 27.1966 14.7497 27.5764 16.0579 27.5764H31.9686C32.7111 27.5941 33.4978 27.7001 34.3287 27.8944C35.1596 28.0711 35.9816 28.3538 36.7948 28.7424C37.6257 29.1311 38.4124 29.6257 39.1549 30.2264C39.8974 30.8094 40.5515 31.516 41.1172 32.3463C41.7006 33.1766 42.1603 34.1306 42.4962 35.2082C42.8321 36.2859 43 37.5048 43 38.8651Z" fill="black"/>
<path d="M78 50.0479H53.5242C52.8979 50.0479 52.2195 49.9772 51.4889 49.8359C50.7756 49.6769 50.0624 49.4384 49.3492 49.1204C48.6534 48.8024 47.9836 48.3961 47.34 47.9014C46.6963 47.3891 46.1223 46.7796 45.6178 46.073C45.1307 45.3486 44.7393 44.5183 44.4436 43.582C44.1479 42.628 44 41.5592 44 40.3756V21.7201C44 21.0841 44.0696 20.404 44.2087 19.6797C44.3653 18.9377 44.6002 18.2134 44.9133 17.5067C45.2264 16.7824 45.6352 16.0934 46.1397 15.4398C46.6442 14.7861 47.2443 14.212 47.9401 13.7173C48.6534 13.205 49.471 12.7987 50.3929 12.4983C51.3149 12.198 52.3587 12.0479 53.5242 12.0479H78V18.9377H53.5242C52.637 18.9377 51.9586 19.1762 51.4889 19.6532C51.0192 20.1301 50.7843 20.8368 50.7843 21.7731V40.3756C50.7843 41.2589 51.0192 41.9479 51.4889 42.4426C51.976 42.9195 52.6544 43.158 53.5242 43.158H78V50.0479Z" fill="black"/>
<path fill-rule="evenodd" clip-rule="evenodd" d="M85.9703 38.5058C86.3643 39.7245 86.8856 40.8904 87.5216 41.9858C88.2651 43.2666 89.1654 44.4511 90.202 45.5115C90.4056 45.7197 90.5832 45.9488 90.7324 46.1923C91.4322 47.3343 91.5072 48.7928 90.7036 49.897L90.055 50.7884C89.0801 52.1281 87.1889 52.436 85.9756 51.3077C85.6847 51.0372 85.4005 50.76 85.1234 50.4765C83.7793 49.1016 82.5994 47.5774 81.6063 45.935C80.6144 44.2944 79.8089 42.536 79.2123 40.6907C77.5864 35.6616 77.5961 30.2466 79.2402 25.2235C80.8843 20.2003 84.0781 15.8274 88.3628 12.7329C92.6476 9.6384 97.8029 7.98148 103.088 8.00014C108.374 8.0188 113.517 9.71208 117.78 12.8368C120.274 14.6651 122.392 16.9285 124.042 19.5005C124.454 20.1427 123.763 21 123 21V21C121.536 21 120.195 21.524 119.154 22.3946C118.612 22.848 117.737 22.8195 117.313 22.2542C116.263 20.8563 115.008 19.6112 113.581 18.5651C110.529 16.3281 106.847 15.1159 103.063 15.1025C99.2793 15.0891 95.5887 16.2753 92.5212 18.4907C89.4537 20.7061 87.1673 23.8366 85.9903 27.4327C84.8133 31.0289 84.8063 34.9055 85.9703 38.5058ZM122.326 32.9625C121.623 32.8839 120.907 33.3894 120.864 34.0953C120.77 35.6278 120.479 37.1508 119.99 38.6259C119.588 39.8418 119.058 41.0039 118.414 42.0949C117.662 43.3703 116.753 44.5485 115.709 45.6016C115.504 45.8083 115.325 46.0362 115.174 46.2786C114.466 47.4156 114.381 48.8736 115.177 49.9834L115.819 50.8794C116.784 52.2259 118.673 52.5471 119.895 51.4275C120.187 51.159 120.474 50.8838 120.753 50.6023C122.106 49.237 123.297 47.7211 124.302 46.0857C125.305 44.4522 126.123 42.6995 126.733 40.8585C127.563 38.3516 127.985 35.7454 128 33.1371C128.005 32.2161 126.723 31.7951 125.918 32.2437C125.054 32.7254 124.059 33 123 33C122.772 33 122.547 32.9873 122.326 32.9625Z" fill="black"/>
<path fill-rule="evenodd" clip-rule="evenodd" d="M103.578 44.9151L114.984 32.5242C115.75 31.6925 114.764 30.4284 113.771 30.9684L99.383 38.7918C99.3379 38.8163 99.2909 38.8371 99.2429 38.8553C98.8726 38.9959 98.5153 39.193 98.1836 39.4481C96.4254 40.8001 96.0548 43.2678 97.3559 44.9599C98.657 46.6519 101.137 46.9276 102.895 45.5756C103.153 45.3774 103.381 45.1552 103.578 44.9151Z" fill="#364EFF"/>
<circle cx="123" cy="27" r="4" fill="#364EFF"/>
</svg>
